<svg width="17" height="17" viewBox="0 0 17 17" fill="none" xmlns="http://www.w3.org/2000/svg">
<path d="M5.1 2.83269V3.96521H15.8667V6.20707L14.6094 10.1941H4.74343L3.32676 0H0V1.13252H2.33991L3.75657 11.3266H15.4405L17 6.38127V2.83269H5.1Z" fill="#8A5B4C"/>
<path d="M5.70124 12.47C5.10029 12.4707 4.52415 12.7095 4.09922 13.1341C3.67428 13.5588 3.43525 14.1345 3.43457 14.735C3.43457 15.3357 3.67338 15.9119 4.09846 16.3366C4.52354 16.7614 5.10008 17.0001 5.70124 17.0001C6.30239 17.0001 6.87893 16.7614 7.30401 16.3366C7.72909 15.9119 7.9679 15.3357 7.9679 14.735C7.96723 14.1345 7.7282 13.5588 7.30327 13.1341C6.87833 12.7095 6.30219 12.4706 5.70124 12.47ZM5.70124 15.8675C5.47708 15.8675 5.25797 15.8011 5.07159 15.6767C4.88521 15.5522 4.73995 15.3754 4.65417 15.1684C4.56839 14.9615 4.54595 14.7338 4.58968 14.5141C4.63341 14.2944 4.74135 14.0926 4.89985 13.9342C5.05835 13.7758 5.26029 13.668 5.48013 13.6243C5.69998 13.5806 5.92786 13.603 6.13495 13.6887C6.34203 13.7744 6.51904 13.9196 6.64357 14.1058C6.7681 14.2921 6.83457 14.511 6.83457 14.735C6.83421 15.0353 6.7147 15.3231 6.50223 15.5354C6.28977 15.7477 6.00171 15.8672 5.70124 15.8675Z" fill="#8A5B4C"/>
<path d="M13.6348 12.47C13.0339 12.4707 12.4577 12.7095 12.0328 13.1341C11.6079 13.5588 11.3688 14.1345 11.3682 14.735C11.3682 15.3357 11.607 15.9119 12.0321 16.3366C12.4571 16.7614 13.0337 17.0001 13.6348 17.0001C14.236 17.0001 14.8125 16.7614 15.2376 16.3366C15.6627 15.9119 15.9015 15.3357 15.9015 14.735C15.9008 14.1345 15.6618 13.5588 15.2369 13.1341C14.8119 12.7095 14.2358 12.4706 13.6348 12.47ZM13.6348 15.8675C13.4107 15.8675 13.1916 15.8011 13.0052 15.6767C12.8188 15.5522 12.6735 15.3754 12.5878 15.1684C12.502 14.9615 12.4795 14.7338 12.5233 14.5141C12.567 14.2944 12.6749 14.0926 12.8334 13.9342C12.9919 13.7758 13.1939 13.668 13.4137 13.6243C13.6336 13.5806 13.8614 13.603 14.0685 13.6887C14.2756 13.7744 14.4526 13.9196 14.5772 14.1058C14.7017 14.2921 14.7682 14.511 14.7682 14.735C14.7678 15.0353 14.6483 15.3231 14.4358 15.5354C14.2234 15.7477 13.9353 15.8672 13.6348 15.8675Z" fill="#8A5B4C"/>
</svg>
