<svg width="18" height="17" viewBox="0 0 18 17" fill="none" xmlns="http://www.w3.org/2000/svg">
<path d="M5.70884 2.83269V3.96521H16.377V6.20707L15.1312 10.1941H5.35553L3.95182 0H0.655487V1.13252H2.97399L4.3777 11.3266H15.9548L17.5 6.38127V2.83269H5.70884Z" fill="#8A5B4C"/>
<path d="M6.30481 12.47C5.70935 12.4707 5.13849 12.7095 4.71744 13.1341C4.29639 13.5588 4.05955 14.1345 4.05887 14.735C4.05887 15.3357 4.29549 15.9119 4.71669 16.3366C5.13788 16.7614 5.70915 17.0001 6.30481 17.0001C6.90047 17.0001 7.47173 16.7614 7.89292 16.3366C8.31412 15.9119 8.55074 15.3357 8.55074 14.735C8.55007 14.1345 8.31324 13.5588 7.89218 13.1341C7.47113 12.7095 6.90026 12.4706 6.30481 12.47ZM6.30481 15.8675C6.0827 15.8675 5.86559 15.8011 5.68092 15.6767C5.49625 15.5522 5.35231 15.3754 5.26732 15.1684C5.18232 14.9615 5.16008 14.7338 5.20341 14.5141C5.24674 14.2944 5.3537 14.0926 5.51075 13.9342C5.6678 13.7758 5.86789 13.668 6.08573 13.6243C6.30356 13.5806 6.52935 13.603 6.73455 13.6887C6.93974 13.7744 7.11513 13.9196 7.23852 14.1058C7.36191 14.2921 7.42777 14.511 7.42777 14.735C7.42742 15.0353 7.309 15.3231 7.09848 15.5354C6.88795 15.7477 6.60253 15.8672 6.30481 15.8675Z" fill="#8A5B4C"/>
<path d="M14.1656 12.47C13.5701 12.4707 12.9993 12.7095 12.5782 13.1341C12.1572 13.5588 11.9203 14.1345 11.9197 14.735C11.9197 15.3357 12.1563 15.9119 12.5775 16.3366C12.9987 16.7614 13.5699 17.0001 14.1656 17.0001C14.7613 17.0001 15.3325 16.7614 15.7537 16.3366C16.1749 15.9119 16.4115 15.3357 16.4115 14.735C16.4109 14.1345 16.174 13.5588 15.753 13.1341C15.3319 12.7095 14.761 12.4706 14.1656 12.47ZM14.1656 15.8675C13.9435 15.8675 13.7264 15.8011 13.5417 15.6767C13.357 15.5522 13.2131 15.3754 13.1281 15.1684C13.0431 14.9615 13.0209 14.7338 13.0642 14.5141C13.1075 14.2944 13.2145 14.0926 13.3715 13.9342C13.5286 13.7758 13.7287 13.668 13.9465 13.6243C14.1644 13.5806 14.3901 13.603 14.5953 13.6887C14.8005 13.7744 14.9759 13.9196 15.0993 14.1058C15.2227 14.2921 15.2886 14.511 15.2886 14.735C15.2882 15.0353 15.1698 15.3231 14.9593 15.5354C14.7487 15.7477 14.4633 15.8672 14.1656 15.8675Z" fill="#8A5B4C"/>
</svg>
