<svg width="38" height="38" viewBox="0 0 38 38" fill="none" xmlns="http://www.w3.org/2000/svg">
<path d="M11.494 6.75862V9.20486H34.9205V14.0473L32.1849 22.6592H10.7181L7.63571 0.640015H0.397217V3.08626H5.48848L8.57092 25.1055H33.9933L37.3865 14.4236V6.75862H11.494Z" fill="#8A5B4C"/>
<path d="M12.8027 27.5752C11.4952 27.5767 10.2416 28.0926 9.31701 29.0098C8.39243 29.927 7.87234 31.1706 7.87085 32.4677C7.87085 33.7653 8.39046 35.0097 9.31537 35.9272C10.2403 36.8447 11.4947 37.3602 12.8027 37.3602C14.1108 37.3602 15.3652 36.8447 16.2901 35.9272C17.215 35.0097 17.7346 33.7653 17.7346 32.4677C17.7332 31.1706 17.2131 29.927 16.2885 29.0098C15.3639 28.0926 14.1103 27.5767 12.8027 27.5752ZM12.8027 34.9139C12.315 34.9139 11.8383 34.7705 11.4327 34.5017C11.0272 34.2329 10.7112 33.8508 10.5245 33.4038C10.3379 32.9568 10.289 32.465 10.3842 31.9905C10.4793 31.5159 10.7142 31.08 11.0591 30.7379C11.4039 30.3958 11.8433 30.1628 12.3217 30.0684C12.8 29.9741 13.2958 30.0225 13.7464 30.2077C14.197 30.3928 14.5822 30.7063 14.8531 31.1086C15.1241 31.5109 15.2687 31.9839 15.2687 32.4677C15.2679 33.1162 15.0079 33.738 14.5456 34.1966C14.0833 34.6552 13.4565 34.9132 12.8027 34.9139Z" fill="#8A5B4C"/>
<path d="M30.0645 27.5752C28.7569 27.5767 27.5033 28.0926 26.5787 29.0098C25.6541 29.927 25.1341 31.1706 25.1326 32.4677C25.1326 33.7653 25.6522 35.0097 26.5771 35.9272C27.502 36.8447 28.7564 37.3602 30.0645 37.3602C31.3725 37.3602 32.6269 36.8447 33.5518 35.9272C34.4768 35.0097 34.9964 33.7653 34.9964 32.4677C34.9949 31.1706 34.4748 29.927 33.5502 29.0098C32.6256 28.0926 31.372 27.5767 30.0645 27.5752ZM30.0645 34.9139C29.5767 34.9139 29.1 34.7705 28.6945 34.5017C28.2889 34.2329 27.9729 33.8508 27.7862 33.4038C27.5996 32.9568 27.5508 32.465 27.6459 31.9905C27.7411 31.5159 27.9759 31.08 28.3208 30.7379C28.6656 30.3958 29.105 30.1628 29.5834 30.0684C30.0617 29.9741 30.5576 30.0225 31.0081 30.2077C31.4587 30.3928 31.8439 30.7063 32.1148 31.1086C32.3858 31.5109 32.5304 31.9839 32.5304 32.4677C32.5296 33.1162 32.2696 33.738 31.8073 34.1966C31.345 34.6552 30.7182 34.9132 30.0645 34.9139Z" fill="#8A5B4C"/>
</svg>
