<svg width="18" height="17" viewBox="0 0 18 17" fill="none" xmlns="http://www.w3.org/2000/svg">
<path d="M5.59907 2.83269V3.96521H16.2673V6.20707L15.0215 10.1941H5.24576L3.84205 0H0.545715V1.13252H2.86422L4.26793 11.3266H15.845L17.3902 6.38127V2.83269H5.59907Z" fill="white"/>
<path d="M6.19503 12.47C5.59958 12.4707 5.02871 12.7095 4.60767 13.1341C4.18662 13.5588 3.94977 14.1345 3.9491 14.735C3.9491 15.3357 4.18572 15.9119 4.60692 16.3366C5.02811 16.7614 5.59937 17.0001 6.19503 17.0001C6.79069 17.0001 7.36196 16.7614 7.78315 16.3366C8.20435 15.9119 8.44097 15.3357 8.44097 14.735C8.4403 14.1345 8.20346 13.5588 7.78241 13.1341C7.36136 12.7095 6.79049 12.4706 6.19503 12.47ZM6.19503 15.8675C5.97293 15.8675 5.75582 15.8011 5.57115 15.6767C5.38647 15.5522 5.24254 15.3754 5.15755 15.1684C5.07255 14.9615 5.05031 14.7338 5.09364 14.5141C5.13697 14.2944 5.24393 14.0926 5.40098 13.9342C5.55803 13.7758 5.75812 13.668 5.97595 13.6243C6.19379 13.5806 6.41958 13.603 6.62478 13.6887C6.82997 13.7744 7.00536 13.9196 7.12875 14.1058C7.25214 14.2921 7.318 14.511 7.318 14.735C7.31765 15.0353 7.19922 15.3231 6.9887 15.5354C6.77818 15.7477 6.49276 15.8672 6.19503 15.8675Z" fill="white"/>
<path d="M14.0558 12.47C13.4604 12.4707 12.8895 12.7095 12.4684 13.1341C12.0474 13.5588 11.8106 14.1345 11.8099 14.735C11.8099 15.3357 12.0465 15.9119 12.4677 16.3366C12.8889 16.7614 13.4602 17.0001 14.0558 17.0001C14.6515 17.0001 15.2227 16.7614 15.6439 16.3366C16.0651 15.9119 16.3017 15.3357 16.3017 14.735C16.3011 14.1345 16.0642 13.5588 15.6432 13.1341C15.2221 12.7095 14.6513 12.4706 14.0558 12.47ZM14.0558 15.8675C13.8337 15.8675 13.6166 15.8011 13.4319 15.6767C13.2473 15.5522 13.1033 15.3754 13.0183 15.1684C12.9333 14.9615 12.9111 14.7338 12.9544 14.5141C12.9977 14.2944 13.1047 14.0926 13.2618 13.9342C13.4188 13.7758 13.6189 13.668 13.8367 13.6243C14.0546 13.5806 14.2804 13.603 14.4855 13.6887C14.6907 13.7744 14.8661 13.9196 14.9895 14.1058C15.1129 14.2921 15.1788 14.511 15.1788 14.735C15.1784 15.0353 15.06 15.3231 14.8495 15.5354C14.639 15.7477 14.3535 15.8672 14.0558 15.8675Z" fill="white"/>
</svg>
